<?xml version="1.0" ?><!DOCTYPE svg  PUBLIC '-//W3C//DTD SVG 1.1//EN'  'http://www.w3.org/Graphics/SVG/1.1/DTD/svg11.dtd'><svg enable-background="new 0 0 512 512" height="512px" id="Layer_1" version="1.1" viewBox="0 0 512 512" width="512px" xml:space="preserve" xmlns="http://www.w3.org/2000/svg" xmlns:xlink="http://www.w3.org/1999/xlink"><g><path d="M506.625,34.75c-4.031-3.063-9.375-3.609-14.016-1.422L11.188,263.422   c-7.281,3.391-11.75,10.984-11.125,18.922c0.656,7.938,6.125,14.563,13.938,16.844l111.328,32.75c0,0,50.859,139.845,51.156,140.47   l0.047,0.155h0.031c0.969,2.095,2.406,4,4.453,5.345c2.141,1.405,4.578,2.094,6.984,2.094c3.094,0,6.156-1.109,8.563-3.281   l87.344-78.608l128.281,63.516c3.03,1.453,6.327,2.188,9.625,2.188c3.313,0,6.625-0.733,9.641-2.202   c6.172-3,10.516-8.767,11.625-15.392l68.719-398.359C512.656,42.828,510.672,37.813,506.625,34.75z M18.5,283.844   c-1.406-0.422-2.375-1.516-2.5-2.797c-0.094-1.297,0.656-2.531,2.031-3.156l452.25-216.156L129.813,316.594L18.5,283.844z    M182.688,442.719l-41.703-114.5l282.703-211.625L215.553,349.698c-2.055,2.302-3.617,5-4.59,7.928L182.688,442.719z    M194.938,456.656l29.266-88.094l44.267,21.905L194.938,456.656z M427.313,443.547c-0.266,1.563-1.327,2.922-2.875,3.672   c-1.625,0.813-3.594,0.828-5.219,0.031l-133.125-65.906c-0.078-0.047-0.141-0.078-0.219-0.109L232.5,354.813L492.953,63.047   L427.313,443.547z" fill="#4D4D4D"/></g></svg>