<?xml version="1.0" ?><!DOCTYPE svg  PUBLIC '-//W3C//DTD SVG 1.1//EN'  'http://www.w3.org/Graphics/SVG/1.1/DTD/svg11.dtd'><svg enable-background="new 0 0 512 512" id="Layer_1" version="1.1" viewBox="0 0 512 512" xml:space="preserve" xmlns="http://www.w3.org/2000/svg" xmlns:xlink="http://www.w3.org/1999/xlink"><path d="M391.6,227.4c8.7-8.9,17.3-17.9,25.8-26.8c24.6-26,26.9-64.5,7.3-93l21.4-21.4l39.7,39.7c4.8,4.8,14.8,5.2,20,0  c5.5-5.5,5.5-14.4,0-20L406.4,6.5c-5.5-5.5-14.4-5.5-20,0c-5.5,5.5-5.5,14.4,0,20l39.7,39.7l-21.4,21.5c-27.8-19.6-66.2-19.4-93,7.3  c-8.7,8.7-17.9,17-26.8,25.8L182.5,18.3C164.3,0,134,0.5,116.2,18.3L80.8,53.7c-18.3,18.3-18.3,48.1,0,66.4l104.2,104.2  c-29.8,32.7-57.3,65-80.9,95l-31.6-31.6c-5.3-5.3-14.7-5.3-20,0L6.1,334.1c-5.5,5.5-5.5,14.4,0,20l43.4,43.4  c-13.7,23.6-21.7,43.2-21.9,56.9c-0.2,11.5,4.4,18.4,8.2,22.3c3.7,3.7,10.5,8.2,21.7,8.2c0,0,0,0,0,0c13.8,0,33.6-8,57.5-21.9  l43.4,43.4c4.8,4.8,15.6,4.3,20,0l46.4-46.4c5.5-5.5,5.5-14.4,0-20l-31.5-31.5c30-23.5,62.3-51.1,95-80.9l104.1,104.1  c18.7,18.7,48.1,18.2,66.4,0l35.4-35.4c18.3-18.3,18.3-48.1,0-66.4L391.6,227.4z M62.5,317.6l24,24c-8.1,10.9-15.5,21.3-22,31  L36.1,344L62.5,317.6z M168.3,476.3l-28.6-28.6c9.7-6.5,20-13.8,31-22l24.1,24.1L168.3,476.3z M204,203.4L100.7,100.1  c-7.3-7.3-7.3-19.2,0-26.5l35.4-35.4c6.7-6.7,19.5-7,26.5,0l102.3,102.4C255.5,150,207.8,199.3,204,203.4z M55.9,456.4  c-6-19.3,54.8-111.1,165-229.7l13.4,13.4c5.2,5.2,14.4,5.6,20,0c5.5-5.5,5.5-14.4,0-20l-14.1-14.1c5.2-5.4,10.5-11,15.9-16.5  l34.5,34.5c5.2,5.2,14.5,5.5,20,0c5.5-5.5,5.5-14.4,0-20l-34.6-34.6c17.6-17.7,36.5-35.2,55.4-54c16.6-16.6,47.5-15.9,64.5,1.2  c17.6,17.6,18.4,46.8,1.2,64.5C147.3,437.5,58.6,462.8,55.9,456.4z M474.1,376.3l-35.4,35.4c-7.1,7.1-19.4,7.1-26.5,0L308.9,308.3  c1.5-1.4,62.3-60.3,62.9-60.9l102.3,102.3C481.4,357.1,481.4,369,474.1,376.3z"/></svg>