<?xml version="1.0" ?><!DOCTYPE svg  PUBLIC '-//W3C//DTD SVG 1.1//EN'  'http://www.w3.org/Graphics/SVG/1.1/DTD/svg11.dtd'><svg height="512px" style="enable-background:new 0 0 510.664 512;" version="1.1" viewBox="0 0 510.664 512" width="510.664px" xml:space="preserve" xmlns="http://www.w3.org/2000/svg" xmlns:xlink="http://www.w3.org/1999/xlink"><g id="space-shuttle"><g id="space-shuttle_1_"><path d="M503.902,6.736c-10.775-10.779-32.777-8.632-67.682,6.512    c-19.265,8.242-41.689,20.068-64.844,34.218c-31.824,19.42-60.59,40.429-75.099,54.836l-9.977,9.972    c-60.132,38.042-117.027,39.204-167.25,40.198c-46.426,0.922-86.518,1.721-116.389,31.592C0.958,185.768,0,188.074,0,190.488    c0,2.413,0.958,4.719,2.661,6.423l99.506,99.505l-22.073,22.073l32.049,32.053L44.062,381.31l83.541,83.537l27.702-71.143    l36.84,36.845l22.077-22.082c12.496,12.501,48.298,48.289,100.961,100.881c1.774,1.765,4.094,2.653,6.419,2.653    c2.324,0,4.649-0.888,6.423-2.662c29.88-29.88,30.67-69.971,31.587-116.388c1.02-51.536,2.174-109.939,43.06-171.739l-0.719-0.479    l6.378-6.379c14.776-14.763,37.346-45.938,57.525-79.455c13.303-22.356,24.3-43.463,31.801-61.029    C512.636,38.79,514.623,17.463,503.902,6.736z M22.33,190.887c24.158-18.799,56.756-19.447,97.079-20.245    c37.044-0.737,80.782-1.668,127.185-18.657L115.013,283.57L22.33,190.887z M341.446,392.586    c-0.799,40.322-1.442,72.926-20.245,97.092c-48.95-48.892-82.193-82.116-94.133-94.058l134.66-134.664    C343.123,308.988,342.205,354.287,341.446,392.586z M395.485,201.506l-203.34,203.349l-37.848-37.847l71.702-71.71l-12.846-12.847    l-71.702,71.711l-35.665-35.674l191.9-191.904l3.008-1.934l-0.417-0.657l8.828-8.828c9.71-9.643,27.307-23.129,47.805-36.862    l75.427,75.436C418.52,174.368,405.128,191.872,395.485,201.506z M450.263,125.573c-2.565,4.259-5.168,8.464-7.781,12.607    l-4.898-4.897l-0.004,0.009l-65.097-65.102c2.773-1.747,5.545-3.495,8.362-5.216c20.254-12.376,39.724-22.738,56.974-30.492    l40.358,40.358C471.124,88.428,461.655,106.428,450.263,125.573z" style="fill:#231F20;"/></g></g><g id="Layer_1"/></svg>