<?xml version="1.0" ?><!DOCTYPE svg  PUBLIC '-//W3C//DTD SVG 1.1//EN'  'http://www.w3.org/Graphics/SVG/1.1/DTD/svg11.dtd'><svg enable-background="new 0 0 512 512" height="512px" id="Layer_1" version="1.1" viewBox="0 0 512 512" width="512px" xml:space="preserve" xmlns="http://www.w3.org/2000/svg" xmlns:xlink="http://www.w3.org/1999/xlink"><path d="M487.864,256.998c0,127.506-103.369,230.866-230.862,230.866c-127.509,0-230.866-103.359-230.866-230.866  c0-127.499,103.357-230.862,230.866-230.862C384.495,26.135,487.864,129.499,487.864,256.998z" fill="#29BAED"/><g><path d="M406.084,123.794c-3.335-1.196-6.993-1.862-10.835-1.862c-15.317,0-27.729,10.545-27.729,23.556   c0,1.468,0.172,2.903,0.487,4.3h-1.638c-6.003,0-10.872,5.229-10.872,11.677c0,6.457,4.869,11.681,10.872,11.681h105.787   c-9.547-24.475-23.151-46.918-39.983-66.513C420.299,107.959,410.431,114.664,406.084,123.794z" fill="#219ED9"/><path d="M487.798,262.539c-8.179-1.761-16.74-2.704-25.561-2.704c-43.527,0-80.738,22.767-96.103,55.061   c-10.541-3.773-22.101-5.891-34.255-5.891c-48.414,0-87.664,33.338-87.664,74.466c0,4.648,0.55,9.184,1.536,13.593h-5.155   c-18.988,0-34.382,16.535-34.382,36.921c0,20.406,15.395,36.934,34.382,36.934h103.336   C426.729,437.236,485.575,356.898,487.798,262.539z" fill="#219ED9"/><path d="M294.662,139.763c11.293,0,20.436-9.825,20.436-21.955c0-12.12-9.143-21.949-20.436-21.949h-4.767   c1.702-2.731,2.746-5.78,2.746-9.074c0-10.847-10.339-19.635-23.106-19.635c-5.649,0-10.754,1.795-14.765,4.65   c0.193-1.692,0.298-3.412,0.298-5.148c0-15.706-8.149-29.784-21.039-39.383C159.156,34.667,94.813,77.83,58.287,139.438   c1.099,0.199,2.222,0.324,3.376,0.324H294.662z" fill="#C7F7FF"/><path d="M160.994,364.632c0-11.568-8.732-20.953-19.513-20.953h-4.547c1.623-2.603,2.622-5.519,2.622-8.661   c0-10.356-9.874-18.741-22.06-18.741c-5.394,0-10.268,1.708-14.097,4.438c0.184-1.615,0.284-3.259,0.284-4.916   c0-27.617-26.354-49.995-58.857-49.995c-6.434,0-12.617,0.895-18.414,2.519c2.093,43.29,16.103,83.451,38.829,117.271h76.239   C152.261,385.593,160.994,376.216,160.994,364.632z" fill="#9EF1FF"/></g><g><path d="M216.174,170.774c0,0-19.057-2.432-6.644,23.776c7.832,16.527,27.236,1.998,48.523-4.837   C279.341,182.875,216.174,170.774,216.174,170.774z" fill="#F7931E"/><path d="M275.994,212.438c-36.894-23.142-97.756-54.769-97.756-54.769c11.997-8.047,64.602,1.592,140.427,23.084" fill="#E5DBCE"/><g><g><defs><path d="M158.923,255.719l-40.438-17.864l20.101,44.094c0,0-36.972,11.78-32.52,24.446      c4.453,12.666,262.152-72.231,307.291-85.708c82.368-24.595-25.656-85.746-86.763-70.971      C278.159,161.424,158.923,255.719,158.923,255.719z" id="XMLID_2_"/></defs><use fill="#EEE3D0" overflow="visible" xlink:href="#XMLID_2_"/><clipPath id="XMLID_3_"><use overflow="visible" xlink:href="#XMLID_2_"/></clipPath><path clip-path="url(#XMLID_3_)" d="M415.647,248.395c-32.682-25.391-82.376-23.396-120.805-17.465     c-46.659,7.205-90.069,22.772-131.743,39.372c-19.389,7.726-38.224,16.281-56.586,25.365c-4.753,2.353-0.318,7.956,4.722,6.359     c38.786-12.279,74.961-28.786,113.665-41.264c40.792-13.15,85.921-25.524,132.139-21.781     c18.576,1.509,36.933,6.864,53.357,14.997C414.943,256.233,419.617,251.479,415.647,248.395z" fill="#F7931E"/></g></g><path d="M136.483,288.993l-11.352,24.25c0,0,17.471-2.984,22.552-9.254c8.418-10.387,12.808-24.261,12.808-24.261" fill="#EEE3D0"/><path d="M312.503,282.29c1.028-14.992-6.846-27.387-6.846-27.387s-31.568,2.071-65.845,12.529   c-6.53,1.993-12.253,3.475-5.596,30.915c4.098,16.89,22.778,10.234,43.188,4.512C287.903,301.195,311.703,293.906,312.503,282.29z" fill="#F7931E"/><path d="M354.563,216.541c-92.047,89.595-124.204,151.14-136.295,148.107l58.562-137.519" fill="#EEE3D0"/><path d="M354.026,173.507l6.982,17.277l65.103-19.499c0,0-12.573-10.601-28.744-14.373L354.026,173.507z" fill="#C7B299"/><g><circle cx="330.47" cy="189.839" fill="#C7B299" r="5.62"/><circle cx="310.742" cy="196.261" fill="#C7B299" r="5.621"/><circle cx="291.016" cy="202.684" fill="#C7B299" r="5.62"/><circle cx="271.289" cy="209.105" fill="#C7B299" r="5.621"/><path d="M257.093,216.528c-0.553,3.053-3.479,5.08-6.534,4.529c-3.053-0.555-5.081-3.48-4.528-6.531    c0.555-3.058,3.479-5.085,6.532-4.531C255.618,210.547,257.645,213.474,257.093,216.528z" fill="#C7B299"/></g></g></svg>